<svg version="1.2" xmlns="http://www.w3.org/2000/svg" viewBox="0 0 150 150" width="150" height="150">
	<title>New Project</title>
	<style>
		.s0 { fill: #000000 } 
	</style>
	<path class="s0" d="m76.1 0.4c-11.2 1.3-21.2 5.8-29.3 13.2-7.5 7-12.2 14.2-15.7 24.2-1.9 5.2-1.5 5.3 0.8 0.2 10.8-23.2 34.2-34.9 58.2-29.1 15.1 3.6 27.8 13.8 34.1 27.5 3.3 7.3 4.9 15.5 4.5 23.6-0.6 13.8-5.9 25.7-15.6 35.1-17.7 17.1-46.1 18.8-70.5 4.1-16.6-10-28.5-26.9-32.5-46.3-0.4-2.1-0.9-4.7-1-5.8-0.2-1.5-0.3-2-0.6-1.7-0.2 0.3-0.3 2.5-0.3 7 0 9 1.2 15.9 3.9 24.2 6.1 18.3 17.1 32.9 31.5 42.1 4.7 2.9 7.6 4.4 13 6.3 17.1 6.4 35.7 5 51.8-3.6 6.7-3.5 11.1-7.1 16.8-13.5 4.1-4.6 7-9 9.5-14.5 3.9-8.4 5.6-15.6 5.9-25.1 0.2-6.4-0.2-11.4-1.4-16.8-1.3-6.4-1.4-5.8 0.8-6.8 2.7-1.2 6.2-3.8 8-6 2.9-3.3 3-3.2-2.1-3.2-2.8 0-5.3-0.2-6.8-0.5-2.4-0.6-7.1-2.8-7.3-3.5 0-0.2 0.5-0.7 1.3-1.1 2-1 4.5-3.3 6.2-5.5 1.5-2.1 3.4-5.8 3.2-6.3-0.1-0.1-1.6 0.2-3.3 0.6-2.6 0.8-3.8 0.9-7.5 0.9-5.9 0-7.3-0.5-11.7-4.5-3.7-3.5-5.8-5.1-9.9-7.6-5.8-3.5-13.6-6.2-20.5-7.2-3.6-0.6-10.5-0.7-13.5-0.4z"/>
	<path class="s0" d="m111.7 32.9c-1.3 0.5-2.9 2.6-3.2 3.9-0.4 1.9 0.1 3.9 1.2 5.3 4.3 5.6 12 0.1 9.2-6.5-1.1-2.7-4.5-4-7.2-2.7z"/>
	<path class="s0" d="m0 66.3c0.1 17.1 6 35.3 16.6 50.5 15.1 21.6 36.6 33.2 61.6 33.2 7.2 0 12.5-0.7 19.1-2.5 12.2-3.3 21.8-8.4 33.2-17.6 2.5-2 2.9-2.7 0.7-1.3-5.7 3.6-17.8 8.5-25.4 10.5-7.7 1.9-11.9 2.4-22.1 2.4-10 0-12.8-0.3-19.8-1.9-3.7-0.9-11.4-3.7-15.2-5.5-16.5-7.9-30.6-22.6-39-40.7-4.1-8.8-7.6-19.7-8.9-27.4-0.3-2.1-0.8-1.9-0.8 0.3z"/>
	<g id="Layer 1">
	</g>
</svg>